<?xml version="1.0" encoding="UTF-8"?>
<svg version="1.1" xmlns="http://www.w3.org/2000/svg" width="200" height="200">
<path d="M0 0 C66 0 132 0 200 0 C200 66 200 132 200 200 C134 200 68 200 0 200 C0 134 0 68 0 0 Z " fill="#FCFCFC" transform="translate(0,0)"/>
<path d="M0 0 C66 0 132 0 200 0 C200 66 200 132 200 200 C134 200 68 200 0 200 C0 134 0 68 0 0 Z M34 10 C34 69.4 34 128.8 34 190 C77.56 190 121.12 190 166 190 C166.90574322 164.27587708 166.90574322 164.27587708 167.51367188 138.54882812 C167.69647314 128.02709188 167.91037282 117.51327206 168.33862305 106.99829102 C172.05540182 62.26705438 172.05540182 62.26705438 155.5921669 22.74829483 C142.00271342 9.37906221 125.29375902 7.0751507 106.87261963 6.95266724 C98.74877302 7.05095104 90.68109211 7.60339227 82.5625 8.0625 C58.5240625 9.0215625 58.5240625 9.0215625 34 10 Z " fill="#FEFEFE" transform="translate(0,0)"/>
<path d="M0 0 C24.0384375 -0.9590625 24.0384375 -0.9590625 48.5625 -1.9375 C53.55318604 -2.21972412 58.54387207 -2.50194824 63.68579102 -2.79272461 C83.59059139 -3.49242649 104.13116745 -3.2515932 119.65625 10.84375 C134.28406029 25.23451257 134.75105047 44.86215582 135.00998569 64.1532104 C135.09314904 75.97696219 134.71396246 87.78244809 134.23287493 99.59476238 C133.81514665 110.02888373 133.65294577 120.46722053 133.47302151 130.90763569 C133.18436165 147.2823202 132.5664024 163.62711332 132 180 C88.44 180 44.88 180 0 180 C0 120.6 0 61.2 0 0 Z M10 10 C10 62.8 10 115.6 10 170 C46.96 170 83.92 170 122 170 C122 127.1 122 84.2 122 40 C112.76 40 103.52 40 94 40 C94 30.1 94 20.2 94 10 C66.28 10 38.56 10 10 10 Z " fill="#010101" transform="translate(34,10)"/>
<path d="M0 0 C29.7 0 59.4 0 90 0 C90 3.3 90 6.6 90 10 C60.3 10 30.6 10 0 10 C0 6.7 0 3.4 0 0 Z " fill="#050505" transform="translate(55,128)"/>
<path d="M0 0 C29.7 0 59.4 0 90 0 C90 3.3 90 6.6 90 10 C60.3 10 30.6 10 0 10 C0 6.7 0 3.4 0 0 Z " fill="#050505" transform="translate(55,106)"/>
<path d="M0 0 C29.7 0 59.4 0 90 0 C90 3.3 90 6.6 90 10 C60.3 10 30.6 10 0 10 C0 6.7 0 3.4 0 0 Z " fill="#050505" transform="translate(55,84)"/>
<path d="M0 0 C29.7 0 59.4 0 90 0 C90 3.3 90 6.6 90 10 C60.3 10 30.6 10 0 10 C0 6.7 0 3.4 0 0 Z " fill="#060606" transform="translate(55,62)"/>
<path d="M0 0 C19.8 0 39.6 0 60 0 C60 3.3 60 6.6 60 10 C40.2 10 20.4 10 0 10 C0 6.7 0 3.4 0 0 Z " fill="#060606" transform="translate(55,150)"/>
<path d="M0 0 C19.8 0 39.6 0 60 0 C60 3.3 60 6.6 60 10 C40.2 10 20.4 10 0 10 C0 6.7 0 3.4 0 0 Z " fill="#050505" transform="translate(55,40)"/>
<path d="M0 0 C7.23214286 5.89285714 7.23214286 5.89285714 9 10 C9.66 10 10.32 10 11 10 C11 10.66 11 11.32 11 12 C7.37 12 3.74 12 0 12 C0 8.04 0 4.08 0 0 Z " fill="#D5D5D5" transform="translate(138,28)"/>
</svg>
